<svg width="375" height="70" viewBox="0 0 375 70" fill="none" xmlns="http://www.w3.org/2000/svg">
<path d="M15.8301 36.3125L36.0742 44.5156V50.2578L12.1094 39.1543V35.7852L15.8301 36.3125ZM36.0742 29.5742L15.8594 37.8945L12.1094 38.3047V34.9062L36.0742 23.832V29.5742Z" fill="#16BFFD"/>
<path d="M59.8818 24.6719V46H57.04L46.3027 29.5498V46H43.4756V24.6719H46.3027L57.084 41.166V24.6719H59.8818ZM71.0586 46.293C69.9551 46.293 68.9541 46.1074 68.0557 45.7363C67.167 45.3555 66.4004 44.8232 65.7559 44.1396C65.1211 43.4561 64.6328 42.6455 64.291 41.708C63.9492 40.7705 63.7783 39.7451 63.7783 38.6318V38.0166C63.7783 36.7275 63.9688 35.5801 64.3496 34.5742C64.7305 33.5586 65.248 32.6992 65.9023 31.9961C66.5566 31.293 67.2988 30.7607 68.1289 30.3994C68.959 30.0381 69.8184 29.8574 70.707 29.8574C71.8398 29.8574 72.8164 30.0527 73.6367 30.4434C74.4668 30.834 75.1455 31.3809 75.6729 32.084C76.2002 32.7773 76.5908 33.5977 76.8447 34.5449C77.0986 35.4824 77.2256 36.5078 77.2256 37.6211V38.8369H65.3896V36.625H74.5156V36.4199C74.4766 35.7168 74.3301 35.0332 74.0762 34.3691C73.832 33.7051 73.4414 33.1582 72.9043 32.7285C72.3672 32.2988 71.6348 32.084 70.707 32.084C70.0918 32.084 69.5254 32.2158 69.0078 32.4795C68.4902 32.7334 68.0459 33.1143 67.6748 33.6221C67.3037 34.1299 67.0156 34.75 66.8105 35.4824C66.6055 36.2148 66.5029 37.0596 66.5029 38.0166V38.6318C66.5029 39.3838 66.6055 40.0918 66.8105 40.7559C67.0254 41.4102 67.333 41.9863 67.7334 42.4844C68.1436 42.9824 68.6367 43.373 69.2129 43.6562C69.7988 43.9395 70.4629 44.0811 71.2051 44.0811C72.1621 44.0811 72.9727 43.8857 73.6367 43.4951C74.3008 43.1045 74.8818 42.582 75.3799 41.9277L77.0205 43.2314C76.6787 43.749 76.2441 44.2422 75.7168 44.7109C75.1895 45.1797 74.54 45.5605 73.7686 45.8535C73.0068 46.1465 72.1035 46.293 71.0586 46.293ZM85.0039 43.5537L89.3398 30.1504H92.1084L86.4102 46H84.5938L85.0039 43.5537ZM81.3857 30.1504L85.8535 43.627L86.1611 46H84.3447L78.6025 30.1504H81.3857ZM101.088 46.293C99.9844 46.293 98.9834 46.1074 98.085 45.7363C97.1963 45.3555 96.4297 44.8232 95.7852 44.1396C95.1504 43.4561 94.6621 42.6455 94.3203 41.708C93.9785 40.7705 93.8076 39.7451 93.8076 38.6318V38.0166C93.8076 36.7275 93.998 35.5801 94.3789 34.5742C94.7598 33.5586 95.2773 32.6992 95.9316 31.9961C96.5859 31.293 97.3281 30.7607 98.1582 30.3994C98.9883 30.0381 99.8477 29.8574 100.736 29.8574C101.869 29.8574 102.846 30.0527 103.666 30.4434C104.496 30.834 105.175 31.3809 105.702 32.084C106.229 32.7773 106.62 33.5977 106.874 34.5449C107.128 35.4824 107.255 36.5078 107.255 37.6211V38.8369H95.4189V36.625H104.545V36.4199C104.506 35.7168 104.359 35.0332 104.105 34.3691C103.861 33.7051 103.471 33.1582 102.934 32.7285C102.396 32.2988 101.664 32.084 100.736 32.084C100.121 32.084 99.5547 32.2158 99.0371 32.4795C98.5195 32.7334 98.0752 33.1143 97.7041 33.6221C97.333 34.1299 97.0449 34.75 96.8398 35.4824C96.6348 36.2148 96.5322 37.0596 96.5322 38.0166V38.6318C96.5322 39.3838 96.6348 40.0918 96.8398 40.7559C97.0547 41.4102 97.3623 41.9863 97.7627 42.4844C98.1729 42.9824 98.666 43.373 99.2422 43.6562C99.8281 43.9395 100.492 44.0811 101.234 44.0811C102.191 44.0811 103.002 43.8857 103.666 43.4951C104.33 43.1045 104.911 42.582 105.409 41.9277L107.05 43.2314C106.708 43.749 106.273 44.2422 105.746 44.7109C105.219 45.1797 104.569 45.5605 103.798 45.8535C103.036 46.1465 102.133 46.293 101.088 46.293ZM113.129 32.6406V46H110.419V30.1504H113.056L113.129 32.6406ZM118.08 30.0625L118.065 32.582C117.841 32.5332 117.626 32.5039 117.421 32.4941C117.226 32.4746 117.001 32.4648 116.747 32.4648C116.122 32.4648 115.57 32.5625 115.092 32.7578C114.613 32.9531 114.208 33.2266 113.876 33.5781C113.544 33.9297 113.28 34.3496 113.085 34.8379C112.899 35.3164 112.777 35.8438 112.719 36.4199L111.957 36.8594C111.957 35.9023 112.05 35.0039 112.235 34.1641C112.431 33.3242 112.729 32.582 113.129 31.9375C113.529 31.2832 114.037 30.7754 114.652 30.4141C115.277 30.043 116.02 29.8574 116.879 29.8574C117.074 29.8574 117.299 29.8818 117.553 29.9307C117.807 29.9697 117.982 30.0137 118.08 30.0625ZM139.804 40.6094C139.804 40.1113 139.726 39.6719 139.569 39.291C139.423 38.9004 139.159 38.5488 138.778 38.2363C138.407 37.9238 137.89 37.626 137.226 37.3428C136.571 37.0596 135.741 36.7715 134.735 36.4785C133.681 36.166 132.729 35.8193 131.879 35.4385C131.029 35.0479 130.302 34.6035 129.696 34.1055C129.091 33.6074 128.627 33.0361 128.305 32.3916C127.982 31.7471 127.821 31.0098 127.821 30.1797C127.821 29.3496 127.992 28.583 128.334 27.8799C128.676 27.1768 129.164 26.5664 129.799 26.0488C130.443 25.5215 131.21 25.1113 132.099 24.8184C132.987 24.5254 133.979 24.3789 135.072 24.3789C136.674 24.3789 138.031 24.6865 139.145 25.3018C140.268 25.9072 141.122 26.7031 141.708 27.6895C142.294 28.666 142.587 29.7109 142.587 30.8242H139.774C139.774 30.0234 139.604 29.3154 139.262 28.7002C138.92 28.0752 138.402 27.5869 137.709 27.2354C137.016 26.874 136.137 26.6934 135.072 26.6934C134.066 26.6934 133.236 26.8447 132.582 27.1475C131.928 27.4502 131.439 27.8604 131.117 28.3779C130.805 28.8955 130.648 29.4863 130.648 30.1504C130.648 30.5996 130.741 31.0098 130.927 31.3809C131.122 31.7422 131.42 32.0791 131.82 32.3916C132.23 32.7041 132.748 32.9922 133.373 33.2559C134.008 33.5195 134.765 33.7734 135.644 34.0176C136.854 34.3594 137.899 34.7402 138.778 35.1602C139.657 35.5801 140.38 36.0537 140.946 36.5811C141.522 37.0986 141.947 37.6895 142.221 38.3535C142.504 39.0078 142.646 39.75 142.646 40.5801C142.646 41.4492 142.47 42.2354 142.118 42.9385C141.767 43.6416 141.264 44.2422 140.609 44.7402C139.955 45.2383 139.169 45.624 138.251 45.8975C137.343 46.1611 136.327 46.293 135.204 46.293C134.218 46.293 133.246 46.1562 132.289 45.8828C131.342 45.6094 130.478 45.1992 129.696 44.6523C128.925 44.1055 128.305 43.4316 127.836 42.6309C127.377 41.8203 127.147 40.8828 127.147 39.8184H129.96C129.96 40.5508 130.102 41.1807 130.385 41.708C130.668 42.2256 131.054 42.6553 131.542 42.9971C132.04 43.3389 132.602 43.5928 133.227 43.7588C133.861 43.915 134.521 43.9932 135.204 43.9932C136.19 43.9932 137.025 43.8564 137.709 43.583C138.393 43.3096 138.91 42.9189 139.262 42.4111C139.623 41.9033 139.804 41.3027 139.804 40.6094ZM152.475 30.1504V32.2305H143.905V30.1504H152.475ZM146.806 26.2979H149.516V42.0742C149.516 42.6113 149.599 43.0166 149.765 43.29C149.931 43.5635 150.146 43.7441 150.409 43.832C150.673 43.9199 150.956 43.9639 151.259 43.9639C151.483 43.9639 151.718 43.9443 151.962 43.9053C152.216 43.8564 152.406 43.8174 152.533 43.7881L152.548 46C152.333 46.0684 152.05 46.1318 151.698 46.1904C151.356 46.2588 150.941 46.293 150.453 46.293C149.789 46.293 149.179 46.1611 148.622 45.8975C148.065 45.6338 147.621 45.1943 147.289 44.5791C146.967 43.9541 146.806 43.1143 146.806 42.0596V26.2979ZM154.643 38.251V37.9141C154.643 36.7715 154.809 35.7119 155.141 34.7354C155.473 33.749 155.951 32.8945 156.576 32.1719C157.201 31.4395 157.958 30.873 158.847 30.4727C159.735 30.0625 160.731 29.8574 161.835 29.8574C162.948 29.8574 163.949 30.0625 164.838 30.4727C165.736 30.873 166.498 31.4395 167.123 32.1719C167.758 32.8945 168.241 33.749 168.573 34.7354C168.905 35.7119 169.071 36.7715 169.071 37.9141V38.251C169.071 39.3936 168.905 40.4531 168.573 41.4297C168.241 42.4062 167.758 43.2607 167.123 43.9932C166.498 44.7158 165.741 45.2822 164.853 45.6924C163.974 46.0928 162.978 46.293 161.864 46.293C160.751 46.293 159.75 46.0928 158.861 45.6924C157.973 45.2822 157.211 44.7158 156.576 43.9932C155.951 43.2607 155.473 42.4062 155.141 41.4297C154.809 40.4531 154.643 39.3936 154.643 38.251ZM157.353 37.9141V38.251C157.353 39.042 157.445 39.7891 157.631 40.4922C157.816 41.1855 158.095 41.8008 158.466 42.3379C158.847 42.875 159.32 43.2998 159.887 43.6123C160.453 43.915 161.112 44.0664 161.864 44.0664C162.606 44.0664 163.256 43.915 163.812 43.6123C164.379 43.2998 164.848 42.875 165.219 42.3379C165.59 41.8008 165.868 41.1855 166.054 40.4922C166.249 39.7891 166.347 39.042 166.347 38.251V37.9141C166.347 37.1328 166.249 36.3955 166.054 35.7021C165.868 34.999 165.585 34.3789 165.204 33.8418C164.833 33.2949 164.364 32.8652 163.798 32.5527C163.241 32.2402 162.587 32.084 161.835 32.084C161.093 32.084 160.438 32.2402 159.872 32.5527C159.315 32.8652 158.847 33.2949 158.466 33.8418C158.095 34.3789 157.816 34.999 157.631 35.7021C157.445 36.3955 157.353 37.1328 157.353 37.9141ZM175.18 33.1973V52.0938H172.455V30.1504H174.945L175.18 33.1973ZM185.858 37.9434V38.251C185.858 39.4033 185.722 40.4727 185.448 41.459C185.175 42.4355 184.774 43.2852 184.247 44.0078C183.729 44.7305 183.09 45.292 182.328 45.6924C181.566 46.0928 180.692 46.293 179.706 46.293C178.7 46.293 177.812 46.127 177.04 45.7949C176.269 45.4629 175.614 44.9795 175.077 44.3447C174.54 43.71 174.11 42.9482 173.788 42.0596C173.476 41.1709 173.261 40.1699 173.144 39.0566V37.416C173.261 36.2441 173.48 35.1943 173.803 34.2666C174.125 33.3389 174.55 32.5479 175.077 31.8936C175.614 31.2295 176.264 30.7266 177.025 30.3848C177.787 30.0332 178.666 29.8574 179.662 29.8574C180.658 29.8574 181.542 30.0527 182.313 30.4434C183.085 30.8242 183.734 31.3711 184.262 32.084C184.789 32.7969 185.185 33.6514 185.448 34.6475C185.722 35.6338 185.858 36.7324 185.858 37.9434ZM183.134 38.251V37.9434C183.134 37.1523 183.051 36.4102 182.885 35.7168C182.719 35.0137 182.46 34.3984 182.108 33.8711C181.767 33.334 181.327 32.9141 180.79 32.6113C180.253 32.2988 179.613 32.1426 178.871 32.1426C178.188 32.1426 177.592 32.2598 177.084 32.4941C176.586 32.7285 176.161 33.0459 175.81 33.4463C175.458 33.8369 175.17 34.2861 174.945 34.7939C174.73 35.292 174.569 35.8096 174.462 36.3467V40.1406C174.657 40.8242 174.931 41.4688 175.282 42.0742C175.634 42.6699 176.103 43.1533 176.688 43.5244C177.274 43.8857 178.012 44.0664 178.9 44.0664C179.633 44.0664 180.263 43.915 180.79 43.6123C181.327 43.2998 181.767 42.875 182.108 42.3379C182.46 41.8008 182.719 41.1855 182.885 40.4922C183.051 39.7891 183.134 39.042 183.134 38.251ZM210.102 43.7002V46H199.438V43.7002H210.102ZM199.994 24.6719V46H197.167V24.6719H199.994ZM219.506 46.293C218.402 46.293 217.401 46.1074 216.503 45.7363C215.614 45.3555 214.848 44.8232 214.203 44.1396C213.568 43.4561 213.08 42.6455 212.738 41.708C212.396 40.7705 212.226 39.7451 212.226 38.6318V38.0166C212.226 36.7275 212.416 35.5801 212.797 34.5742C213.178 33.5586 213.695 32.6992 214.35 31.9961C215.004 31.293 215.746 30.7607 216.576 30.3994C217.406 30.0381 218.266 29.8574 219.154 29.8574C220.287 29.8574 221.264 30.0527 222.084 30.4434C222.914 30.834 223.593 31.3809 224.12 32.084C224.647 32.7773 225.038 33.5977 225.292 34.5449C225.546 35.4824 225.673 36.5078 225.673 37.6211V38.8369H213.837V36.625H222.963V36.4199C222.924 35.7168 222.777 35.0332 222.523 34.3691C222.279 33.7051 221.889 33.1582 221.352 32.7285C220.814 32.2988 220.082 32.084 219.154 32.084C218.539 32.084 217.973 32.2158 217.455 32.4795C216.938 32.7334 216.493 33.1143 216.122 33.6221C215.751 34.1299 215.463 34.75 215.258 35.4824C215.053 36.2148 214.95 37.0596 214.95 38.0166V38.6318C214.95 39.3838 215.053 40.0918 215.258 40.7559C215.473 41.4102 215.78 41.9863 216.181 42.4844C216.591 42.9824 217.084 43.373 217.66 43.6562C218.246 43.9395 218.91 44.0811 219.652 44.0811C220.609 44.0811 221.42 43.8857 222.084 43.4951C222.748 43.1045 223.329 42.582 223.827 41.9277L225.468 43.2314C225.126 43.749 224.691 44.2422 224.164 44.7109C223.637 45.1797 222.987 45.5605 222.216 45.8535C221.454 46.1465 220.551 46.293 219.506 46.293ZM238.183 43.29V35.1309C238.183 34.5059 238.056 33.9639 237.802 33.5049C237.558 33.0361 237.187 32.6748 236.688 32.4209C236.19 32.167 235.575 32.04 234.843 32.04C234.159 32.04 233.559 32.1572 233.041 32.3916C232.533 32.626 232.133 32.9336 231.84 33.3145C231.557 33.6953 231.415 34.1055 231.415 34.5449H228.705C228.705 33.9785 228.852 33.417 229.145 32.8604C229.438 32.3037 229.857 31.8008 230.404 31.3516C230.961 30.8926 231.625 30.5312 232.396 30.2676C233.178 29.9941 234.047 29.8574 235.004 29.8574C236.156 29.8574 237.172 30.0527 238.051 30.4434C238.939 30.834 239.633 31.4248 240.131 32.2158C240.639 32.9971 240.893 33.9785 240.893 35.1602V42.543C240.893 43.0703 240.937 43.6318 241.024 44.2275C241.122 44.8232 241.264 45.3359 241.449 45.7656V46H238.622C238.485 45.6875 238.378 45.2725 238.3 44.7549C238.222 44.2275 238.183 43.7393 238.183 43.29ZM238.651 36.3906L238.681 38.2949H235.941C235.17 38.2949 234.481 38.3584 233.876 38.4854C233.271 38.6025 232.763 38.7832 232.353 39.0273C231.942 39.2715 231.63 39.5791 231.415 39.9502C231.2 40.3115 231.093 40.7363 231.093 41.2246C231.093 41.7227 231.205 42.1768 231.43 42.5869C231.654 42.9971 231.991 43.3242 232.44 43.5684C232.899 43.8027 233.461 43.9199 234.125 43.9199C234.955 43.9199 235.688 43.7441 236.322 43.3926C236.957 43.041 237.46 42.6113 237.831 42.1035C238.212 41.5957 238.417 41.1025 238.446 40.624L239.604 41.9277C239.535 42.3379 239.35 42.792 239.047 43.29C238.744 43.7881 238.339 44.2666 237.831 44.7256C237.333 45.1748 236.737 45.5508 236.044 45.8535C235.36 46.1465 234.589 46.293 233.729 46.293C232.655 46.293 231.713 46.083 230.902 45.6631C230.102 45.2432 229.477 44.6816 229.027 43.9785C228.588 43.2656 228.368 42.4697 228.368 41.5908C228.368 40.7412 228.534 39.9941 228.866 39.3496C229.198 38.6953 229.677 38.1533 230.302 37.7236C230.927 37.2842 231.679 36.9521 232.558 36.7275C233.437 36.5029 234.418 36.3906 235.502 36.3906H238.651ZM247.865 32.6406V46H245.155V30.1504H247.792L247.865 32.6406ZM252.816 30.0625L252.802 32.582C252.577 32.5332 252.362 32.5039 252.157 32.4941C251.962 32.4746 251.737 32.4648 251.483 32.4648C250.858 32.4648 250.307 32.5625 249.828 32.7578C249.35 32.9531 248.944 33.2266 248.612 33.5781C248.28 33.9297 248.017 34.3496 247.821 34.8379C247.636 35.3164 247.514 35.8438 247.455 36.4199L246.693 36.8594C246.693 35.9023 246.786 35.0039 246.972 34.1641C247.167 33.3242 247.465 32.582 247.865 31.9375C248.266 31.2832 248.773 30.7754 249.389 30.4141C250.014 30.043 250.756 29.8574 251.615 29.8574C251.811 29.8574 252.035 29.8818 252.289 29.9307C252.543 29.9697 252.719 30.0137 252.816 30.0625ZM258.031 33.5342V46H255.321V30.1504H257.885L258.031 33.5342ZM257.387 37.4746L256.259 37.4307C256.269 36.3467 256.43 35.3457 256.742 34.4277C257.055 33.5 257.494 32.6943 258.061 32.0107C258.627 31.3271 259.301 30.7998 260.082 30.4287C260.873 30.0479 261.747 29.8574 262.704 29.8574C263.485 29.8574 264.188 29.9648 264.813 30.1797C265.438 30.3848 265.971 30.7168 266.41 31.1758C266.859 31.6348 267.201 32.2305 267.436 32.9629C267.67 33.6855 267.787 34.5693 267.787 35.6143V46H265.062V35.585C265.062 34.7549 264.94 34.0908 264.696 33.5928C264.452 33.085 264.096 32.7188 263.627 32.4941C263.158 32.2598 262.582 32.1426 261.898 32.1426C261.225 32.1426 260.609 32.2842 260.053 32.5674C259.506 32.8506 259.032 33.2412 258.632 33.7393C258.241 34.2373 257.934 34.8086 257.709 35.4531C257.494 36.0879 257.387 36.7617 257.387 37.4746ZM274.848 30.1504V46H272.123V30.1504H274.848ZM271.918 25.9463C271.918 25.5068 272.05 25.1357 272.313 24.833C272.587 24.5303 272.987 24.3789 273.515 24.3789C274.032 24.3789 274.428 24.5303 274.701 24.833C274.984 25.1357 275.126 25.5068 275.126 25.9463C275.126 26.3662 274.984 26.7275 274.701 27.0303C274.428 27.3232 274.032 27.4697 273.515 27.4697C272.987 27.4697 272.587 27.3232 272.313 27.0303C272.05 26.7275 271.918 26.3662 271.918 25.9463ZM281.908 33.5342V46H279.198V30.1504H281.762L281.908 33.5342ZM281.264 37.4746L280.136 37.4307C280.146 36.3467 280.307 35.3457 280.619 34.4277C280.932 33.5 281.371 32.6943 281.938 32.0107C282.504 31.3271 283.178 30.7998 283.959 30.4287C284.75 30.0479 285.624 29.8574 286.581 29.8574C287.362 29.8574 288.065 29.9648 288.69 30.1797C289.315 30.3848 289.848 30.7168 290.287 31.1758C290.736 31.6348 291.078 32.2305 291.312 32.9629C291.547 33.6855 291.664 34.5693 291.664 35.6143V46H288.939V35.585C288.939 34.7549 288.817 34.0908 288.573 33.5928C288.329 33.085 287.973 32.7188 287.504 32.4941C287.035 32.2598 286.459 32.1426 285.775 32.1426C285.102 32.1426 284.486 32.2842 283.93 32.5674C283.383 32.8506 282.909 33.2412 282.509 33.7393C282.118 34.2373 281.811 34.8086 281.586 35.4531C281.371 36.0879 281.264 36.7617 281.264 37.4746ZM306.049 30.1504H308.51V45.6631C308.51 47.0596 308.227 48.251 307.66 49.2373C307.094 50.2236 306.303 50.9707 305.287 51.4785C304.281 51.9961 303.119 52.2549 301.801 52.2549C301.254 52.2549 300.609 52.167 299.867 51.9912C299.135 51.8252 298.412 51.5371 297.699 51.127C296.996 50.7266 296.405 50.1846 295.927 49.501L297.348 47.8896C298.012 48.6904 298.705 49.2471 299.428 49.5596C300.16 49.8721 300.883 50.0283 301.596 50.0283C302.455 50.0283 303.197 49.8672 303.822 49.5449C304.447 49.2227 304.931 48.7441 305.272 48.1094C305.624 47.4844 305.8 46.7129 305.8 45.7949V33.6367L306.049 30.1504ZM295.136 38.251V37.9434C295.136 36.7324 295.277 35.6338 295.561 34.6475C295.854 33.6514 296.269 32.7969 296.806 32.084C297.353 31.3711 298.012 30.8242 298.783 30.4434C299.555 30.0527 300.424 29.8574 301.391 29.8574C302.387 29.8574 303.256 30.0332 303.998 30.3848C304.75 30.7266 305.385 31.2295 305.902 31.8936C306.43 32.5479 306.845 33.3389 307.147 34.2666C307.45 35.1943 307.66 36.2441 307.777 37.416V38.7637C307.67 39.9258 307.46 40.9707 307.147 41.8984C306.845 42.8262 306.43 43.6172 305.902 44.2715C305.385 44.9258 304.75 45.4287 303.998 45.7803C303.246 46.1221 302.367 46.293 301.361 46.293C300.414 46.293 299.555 46.0928 298.783 45.6924C298.021 45.292 297.367 44.7305 296.82 44.0078C296.273 43.2852 295.854 42.4355 295.561 41.459C295.277 40.4727 295.136 39.4033 295.136 38.251ZM297.846 37.9434V38.251C297.846 39.042 297.924 39.7842 298.08 40.4775C298.246 41.1709 298.495 41.7812 298.827 42.3086C299.169 42.8359 299.604 43.251 300.131 43.5537C300.658 43.8467 301.288 43.9932 302.021 43.9932C302.919 43.9932 303.661 43.8027 304.247 43.4219C304.833 43.041 305.297 42.5381 305.639 41.9131C305.99 41.2881 306.264 40.6094 306.459 39.877V36.3467C306.352 35.8096 306.186 35.292 305.961 34.7939C305.746 34.2861 305.463 33.8369 305.111 33.4463C304.77 33.0459 304.345 32.7285 303.837 32.4941C303.329 32.2598 302.733 32.1426 302.05 32.1426C301.308 32.1426 300.668 32.2988 300.131 32.6113C299.604 32.9141 299.169 33.334 298.827 33.8711C298.495 34.3984 298.246 35.0137 298.08 35.7168C297.924 36.4102 297.846 37.1523 297.846 37.9434Z" fill="url(#paint0_linear_1_7)"/>
<path d="M343.504 13.3438L327.859 59.6621H321.59L337.234 13.3438H343.504ZM366.531 38.3047L347.752 31.5957V23.7148L373.27 34.4375V40.0918L366.531 38.3047ZM347.752 43.9297L366.561 37.0742L373.27 35.4629V41.0879L347.752 51.8105V43.9297Z" fill="#EC6EAD"/>
<defs>
<linearGradient id="paint0_linear_1_7" x1="7.18065e-07" y1="35" x2="368" y2="35" gradientUnits="userSpaceOnUse">
<stop stop-color="#16BFFD"/>
<stop offset="1" stop-color="#F055A3"/>
</linearGradient>
</defs>
</svg>
